<?xml version="1.0" encoding="UTF-8"?>
<svg width="262px" height="95px" viewBox="0 0 262 95" version="1.1" xmlns="http://www.w3.org/2000/svg" xmlns:xlink="http://www.w3.org/1999/xlink">
    <!-- Generator: Sketch 46.2 (44496) - http://www.bohemiancoding.com/sketch -->
    <title>Moodcast</title>
    <desc>Created with Sketch.</desc>
    <defs></defs>
    <g id="Page-1" stroke="none" stroke-width="1" fill="none" fill-rule="evenodd">
        <g id="Moodcast">
            <g id="logo" fill-rule="nonzero" fill="#8800FF">
                <g id="noun_470272_cc">
                    <g id="Group">
                        <path d="M48.2948746,50.8431085 C48.2948746,65.3531281 37.9676687,77.3093842 25.210532,77.3093842 C12.4533953,77.3093842 2.12618945,65.3531281 2.12618945,50.8431085 L2.12618945,45.6195015 L0.101247116,45.6195015 L0.101247116,50.8431085 C0.101247116,66.2817693 10.8334415,78.9345064 24.1980608,79.5149071 L24.1980608,92.5158847 L14.782079,92.5158847 L14.782079,94.8374878 L35.5377379,94.8374878 L35.5377379,92.5158847 L26.1217561,92.5158847 L26.1217561,79.5149071 C39.5876225,78.9345064 50.3198169,66.2817693 50.3198169,50.8431085 L50.3198169,45.6195015 L48.2948746,45.6195015 L48.2948746,50.8431085 Z" id="Shape"></path>
                        <path d="M25.210532,70.3445748 C34.9302552,70.3445748 42.7262832,61.2903226 42.7262832,50.2627077 L42.7262832,20.4301075 C42.7262832,9.28641251 34.8290081,0.348240469 25.210532,0.348240469 C15.5920559,0.348240469 7.69478085,9.28641251 7.69478085,20.4301075 L7.69478085,50.2627077 C7.69478085,61.2903226 15.4908088,70.3445748 25.210532,70.3445748 Z M10.7321943,48.5215054 L19.8444348,48.5215054 L19.8444348,47.3607038 L10.7321943,47.3607038 L10.7321943,41.6727761 L19.8444348,41.6727761 L19.8444348,40.5119746 L10.7321943,40.5119746 L10.7321943,34.8240469 L19.8444348,34.8240469 L19.8444348,33.6632454 L10.7321943,33.6632454 L10.7321943,27.8592375 L19.8444348,27.8592375 L19.8444348,26.698436 L10.7321943,26.698436 L10.7321943,21.0105083 L19.8444348,21.0105083 L19.8444348,19.8497067 L10.7321943,19.8497067 C11.0359357,10.9115347 17.414504,3.83064516 25.210532,3.83064516 C33.2090542,3.83064516 39.6888697,11.2597752 39.6888697,20.4301075 L39.6888697,50.2627077 C39.6888697,59.4330401 33.2090542,66.8621701 25.210532,66.8621701 C17.2120098,66.8621701 10.7321943,59.4330401 10.7321943,50.2627077 L10.7321943,48.5215054 Z" id="Shape"></path>
                    </g>
                </g>
                <g id="noun_407489_cc" transform="translate(47.000000, 10.000000)">
                    <g id="Group">
                        <g id="a-link">
                            <g id="a">
                                <path d="M20.48,20.48 C22.8266667,18.1422222 24,15.3155556 24,12 C24,8.67555556 22.8266667,5.84444444 20.48,3.50666667 C18.1422222,1.16888889 15.3155556,0 12,0 C8.67555556,0 5.84444444,1.16888889 3.50666667,3.50666667 C2.46652778,4.54680556 1.65763889,5.68458333 1.08,6.92 C0.85,7.41125 0.654444444,7.91791667 0.493333333,8.44 C0.164444444,9.55611111 0,10.7427778 0,12 C0,15.3155556 1.16888889,18.1422222 3.50666667,20.48 C4.19142361,21.1673611 4.91586806,21.7540278 5.68,22.24 C7.54263889,23.4133333 9.64930556,24 12,24 C14.3444097,24 16.4421875,23.4133333 18.2933333,22.24 C19.0663542,21.7540278 19.7952431,21.1673611 20.48,20.48 L20.48,20.48 Z M12,1.76 C14.8266667,1.76 17.2355556,2.76 19.2266667,4.76 C21.2266667,6.75111111 22.2266667,9.16444444 22.2266667,12 C22.2266667,14.8266667 21.2266667,17.2355556 19.2266667,19.2266667 C17.2355556,21.2266667 14.8266667,22.2266667 12,22.2266667 C9.16444444,22.2266667 6.75111111,21.2266667 4.76,19.2266667 C2.76,17.2355556 1.76,14.8266667 1.76,12 C1.76,10.7284375 1.96,9.54177083 2.36,8.44 C2.55284722,7.91402778 2.78840278,7.40736111 3.06666667,6.92 C3.520625,6.15194444 4.08506944,5.43194444 4.76,4.76 C6.75111111,2.76 9.16444444,1.76 12,1.76 L12,1.76 Z M5.29333333,13.68 C5.49777778,15.8311111 6.57777778,17.56 8.53333333,18.8666667 C9.68,19.5688889 10.8355556,19.9066667 12,19.88 C13.1644444,19.9066667 14.3155556,19.5688889 15.4533333,18.8666667 C17.4355556,17.5422222 18.52,15.8133333 18.7066667,13.68 C18.7244444,13.3155556 18.4577778,13.2 17.9066667,13.3333333 L16.0133333,13.7066667 C14.7955556,14.0444444 13.4577778,14.2133333 12,14.2133333 C10.5333333,14.2133333 9.19111111,14.0444444 7.97333333,13.7066667 L6.09333333,13.3333333 C5.55111111,13.2 5.28444444,13.3155556 5.29333333,13.68 L5.29333333,13.68 Z M9.81333333,10.7866667 L10.2933333,11.48 C10.56,11.8088889 10.6933333,11.64 10.6933333,10.9733333 C10.7022222,10.0577778 10.5333333,9.30222222 10.1866667,8.70666667 C9.78666667,8.08444444 9.35111111,7.77777778 8.88,7.78666667 L8.86666667,7.78666667 C8.38666667,7.77777778 7.94666667,8.08444444 7.54666667,8.70666667 C7.2,9.30222222 7.03111111,10.0577778 7.04,10.9733333 C7.04,11.64 7.17333333,11.8088889 7.44,11.48 L7.92,10.7866667 C8.16,10.3866667 8.47555556,10.2088889 8.86666667,10.2533333 L8.88,10.2533333 C9.26222222,10.2088889 9.57333333,10.3866667 9.81333333,10.7866667 L9.81333333,10.7866667 Z M13.8133333,8.70666667 C13.4666667,9.30222222 13.2977778,10.0577778 13.3066667,10.9733333 C13.3066667,11.64 13.4355556,11.8088889 13.6933333,11.48 L14.1733333,10.7866667 C14.4222222,10.3866667 14.7377778,10.2088889 15.12,10.2533333 L15.1333333,10.2533333 C15.5155556,10.2088889 15.8311111,10.3866667 16.08,10.7866667 L16.5466667,11.48 C16.8133333,11.8088889 16.9466667,11.64 16.9466667,10.9733333 C16.9555556,10.0577778 16.7866667,9.30222222 16.44,8.70666667 C16.0488889,8.08444444 15.6133333,7.77777778 15.1333333,7.78666667 L15.12,7.78666667 C14.64,7.77777778 14.2044444,8.08444444 13.8133333,8.70666667 Z" id="Shape"></path>
                            </g>
                        </g>
                    </g>
                </g>
            </g>
            <g id="text" transform="translate(73.000000, 29.000000)">
                <path d="M5.14,0.012 L15.094,26.304 L25.426,0.012 L29.626,0.012 L29.626,30 L26.77,30 L26.77,4.086 L26.686,4.086 L16.438,30 L13.75,30 L3.88,4.086 L3.796,4.086 L3.796,30 L0.94,30 L0.94,0.012 L5.14,0.012 Z M44.158,9.924 C42.8979937,9.924 41.7920048,10.1899973 40.84,10.722 C39.8879952,11.2540027 39.0970032,11.9539957 38.467,12.822 C37.8369968,13.6900043 37.3610016,14.6769945 37.039,15.783 C36.7169984,16.8890055 36.556,18.0159943 36.556,19.164 C36.556,20.3120057 36.7169984,21.4389945 37.039,22.545 C37.3610016,23.6510055 37.8369968,24.6379957 38.467,25.506 C39.0970032,26.3740043 39.8879952,27.0739973 40.84,27.606 C41.7920048,28.1380027 42.8979937,28.404 44.158,28.404 C45.4180063,28.404 46.5239952,28.1380027 47.476,27.606 C48.4280048,27.0739973 49.2189968,26.3740043 49.849,25.506 C50.4790031,24.6379957 50.9549984,23.6510055 51.277,22.545 C51.5990016,21.4389945 51.76,20.3120057 51.76,19.164 C51.76,18.0159943 51.5990016,16.8890055 51.277,15.783 C50.9549984,14.6769945 50.4790031,13.6900043 49.849,12.822 C49.2189968,11.9539957 48.4280048,11.2540027 47.476,10.722 C46.5239952,10.1899973 45.4180063,9.924 44.158,9.924 Z M44.158,7.698 C45.8100083,7.698 47.2729936,8.00599692 48.547,8.622 C49.8210064,9.23800308 50.8919957,10.0639948 51.76,11.1 C52.6280043,12.1360052 53.2859978,13.3469931 53.734,14.733 C54.1820022,16.1190069 54.406,17.5959922 54.406,19.164 C54.406,20.7320078 54.1820022,22.2089931 53.734,23.595 C53.2859978,24.9810069 52.6280043,26.1919948 51.76,27.228 C50.8919957,28.2640052 49.8210064,29.082997 48.547,29.685 C47.2729936,30.287003 45.8100083,30.588 44.158,30.588 C42.5059917,30.588 41.0430064,30.287003 39.769,29.685 C38.4949936,29.082997 37.4240043,28.2640052 36.556,27.228 C35.6879957,26.1919948 35.0300022,24.9810069 34.582,23.595 C34.1339978,22.2089931 33.91,20.7320078 33.91,19.164 C33.91,17.5959922 34.1339978,16.1190069 34.582,14.733 C35.0300022,13.3469931 35.6879957,12.1360052 36.556,11.1 C37.4240043,10.0639948 38.4949936,9.23800308 39.769,8.622 C41.0430064,8.00599692 42.5059917,7.698 44.158,7.698 Z M67.51,9.924 C66.2499937,9.924 65.1440048,10.1899973 64.192,10.722 C63.2399952,11.2540027 62.4490032,11.9539957 61.819,12.822 C61.1889968,13.6900043 60.7130016,14.6769945 60.391,15.783 C60.0689984,16.8890055 59.908,18.0159943 59.908,19.164 C59.908,20.3120057 60.0689984,21.4389945 60.391,22.545 C60.7130016,23.6510055 61.1889968,24.6379957 61.819,25.506 C62.4490032,26.3740043 63.2399952,27.0739973 64.192,27.606 C65.1440048,28.1380027 66.2499937,28.404 67.51,28.404 C68.7700063,28.404 69.8759952,28.1380027 70.828,27.606 C71.7800048,27.0739973 72.5709969,26.3740043 73.201,25.506 C73.8310032,24.6379957 74.3069984,23.6510055 74.629,22.545 C74.9510016,21.4389945 75.112,20.3120057 75.112,19.164 C75.112,18.0159943 74.9510016,16.8890055 74.629,15.783 C74.3069984,14.6769945 73.8310032,13.6900043 73.201,12.822 C72.5709969,11.9539957 71.7800048,11.2540027 70.828,10.722 C69.8759952,10.1899973 68.7700063,9.924 67.51,9.924 Z M67.51,7.698 C69.1620083,7.698 70.6249936,8.00599692 71.899,8.622 C73.1730064,9.23800308 74.2439957,10.0639948 75.112,11.1 C75.9800043,12.1360052 76.6379978,13.3469931 77.086,14.733 C77.5340022,16.1190069 77.758,17.5959922 77.758,19.164 C77.758,20.7320078 77.5340022,22.2089931 77.086,23.595 C76.6379978,24.9810069 75.9800043,26.1919948 75.112,27.228 C74.2439957,28.2640052 73.1730064,29.082997 71.899,29.685 C70.6249936,30.287003 69.1620083,30.588 67.51,30.588 C65.8579917,30.588 64.3950064,30.287003 63.121,29.685 C61.8469936,29.082997 60.7760043,28.2640052 59.908,27.228 C59.0399957,26.1919948 58.3820022,24.9810069 57.934,23.595 C57.4859978,22.2089931 57.262,20.7320078 57.262,19.164 C57.262,17.5959922 57.4859978,16.1190069 57.934,14.733 C58.3820022,13.3469931 59.0399957,12.1360052 59.908,11.1 C60.7760043,10.0639948 61.8469936,9.23800308 63.121,8.622 C64.3950064,8.00599692 65.8579917,7.698 67.51,7.698 Z M100.774,30 L98.338,30 L98.338,25.884 L98.254,25.884 C97.9739986,26.5840035 97.5610027,27.2279971 97.015,27.816 C96.4689973,28.4040029 95.8460035,28.900998 95.146,29.307 C94.4459965,29.713002 93.697004,30.0279989 92.899,30.252 C92.100996,30.4760011 91.3100039,30.588 90.526,30.588 C88.8739917,30.588 87.4390061,30.287003 86.221,29.685 C85.0029939,29.082997 83.9880041,28.2570052 83.176,27.207 C82.3639959,26.1569947 81.762002,24.9390069 81.37,23.553 C80.977998,22.1669931 80.782,20.7040077 80.782,19.164 C80.782,17.6239923 80.977998,16.1610069 81.37,14.775 C81.762002,13.3889931 82.3639959,12.1710052 83.176,11.121 C83.9880041,10.0709947 85.0029939,9.23800308 86.221,8.622 C87.4390061,8.00599692 88.8739917,7.698 90.526,7.698 C91.3380041,7.698 92.1289962,7.79599902 92.899,7.992 C93.6690039,8.18800098 94.3899966,8.48899797 95.062,8.895 C95.7340034,9.30100203 96.3289974,9.79799706 96.847,10.386 C97.3650026,10.9740029 97.7639986,11.6599961 98.044,12.444 L98.128,12.444 L98.128,0.012 L100.774,0.012 L100.774,30 Z M83.428,19.164 C83.428,20.2840056 83.5609987,21.3969945 83.827,22.503 C84.0930013,23.6090055 84.5129971,24.5959957 85.087,25.464 C85.6610029,26.3320043 86.3959955,27.0389973 87.292,27.585 C88.1880045,28.1310027 89.2659937,28.404 90.526,28.404 C91.926007,28.404 93.1089952,28.1310027 94.075,27.585 C95.0410048,27.0389973 95.824997,26.3320043 96.427,25.464 C97.029003,24.5959957 97.4629987,23.6090055 97.729,22.503 C97.9950013,21.3969945 98.128,20.2840056 98.128,19.164 C98.128,18.0439944 97.9950013,16.9310055 97.729,15.825 C97.4629987,14.7189945 97.029003,13.7320043 96.427,12.864 C95.824997,11.9959957 95.0410048,11.2890027 94.075,10.743 C93.1089952,10.1969973 91.926007,9.924 90.526,9.924 C89.2659937,9.924 88.1880045,10.1969973 87.292,10.743 C86.3959955,11.2890027 85.6610029,11.9959957 85.087,12.864 C84.5129971,13.7320043 84.0930013,14.7189945 83.827,15.825 C83.5609987,16.9310055 83.428,18.0439944 83.428,19.164 Z" id="Moodcast" fill="#686668"></path>
                <path d="M120.346,16.93 C119.953998,14.4379875 118.484013,13.192 115.936,13.192 C114.983995,13.192 114.186003,13.4089978 113.542,13.843 C112.897997,14.2770022 112.373002,14.8369966 111.967,15.523 C111.560998,16.2090034 111.274001,16.9649959 111.106,17.791 C110.937999,18.6170041 110.854,19.4359959 110.854,20.248 C110.854,21.0320039 110.937999,21.8299959 111.106,22.642 C111.274001,23.4540041 111.546998,24.1889967 111.925,24.847 C112.303002,25.5050033 112.813997,26.0439979 113.458,26.464 C114.102003,26.8840021 114.885995,27.094 115.81,27.094 C117.238007,27.094 118.336996,26.695004 119.107,25.897 C119.877004,25.098996 120.359999,24.0280067 120.556,22.684 L126.31,22.684 C125.917998,25.5680144 124.798009,27.7659924 122.95,29.278 C121.101991,30.7900076 118.736014,31.546 115.852,31.546 C114.227992,31.546 112.737007,31.2730027 111.379,30.727 C110.020993,30.1809973 108.866005,29.4180049 107.914,28.438 C106.961995,27.4579951 106.220003,26.2890068 105.688,24.931 C105.155997,23.5729932 104.89,22.0820081 104.89,20.458 C104.89,18.7779916 105.134998,17.2170072 105.625,15.775 C106.115002,14.3329928 106.835995,13.0870052 107.788,12.037 C108.740005,10.9869947 109.901993,10.1680029 111.274,9.58 C112.646007,8.99199706 114.213991,8.698 115.978,8.698 C117.266006,8.698 118.504994,8.86599832 119.695,9.202 C120.885006,9.53800168 121.948995,10.0489966 122.887,10.735 C123.825005,11.4210034 124.587997,12.2749949 125.176,13.297 C125.764003,14.3190051 126.1,15.529993 126.184,16.93 L120.346,16.93 Z M129.418,15.964 C129.502,14.563993 129.851997,13.4020046 130.468,12.478 C131.084003,11.5539954 131.867995,10.8120028 132.82,10.252 C133.772005,9.6919972 134.842994,9.29300119 136.033,9.055 C137.223006,8.81699881 138.419994,8.698 139.624,8.698 C140.716005,8.698 141.821994,8.77499923 142.942,8.929 C144.062006,9.08300077 145.083995,9.38399776 146.008,9.832 C146.932005,10.2800022 147.687997,10.902996 148.276,11.701 C148.864003,12.499004 149.158,13.5559934 149.158,14.872 L149.158,26.17 C149.158,27.1500049 149.213999,28.0879955 149.326,28.984 C149.438001,29.8800045 149.633999,30.5519978 149.914,31 L143.866,31 C143.753999,30.6639983 143.663,30.3210017 143.593,29.971 C143.523,29.6209982 143.474,29.2640018 143.446,28.9 C142.493995,29.8800049 141.374006,30.565998 140.086,30.958 C138.797994,31.350002 137.482007,31.546 136.138,31.546 C135.101995,31.546 134.136004,31.4200013 133.24,31.168 C132.343996,30.9159987 131.560003,30.5240027 130.888,29.992 C130.215997,29.4599973 129.691002,28.7880041 129.313,27.976 C128.934998,27.1639959 128.746,26.1980056 128.746,25.078 C128.746,23.8459938 128.962998,22.831004 129.397,22.033 C129.831002,21.234996 130.390997,20.5980024 131.077,20.122 C131.763003,19.6459976 132.546996,19.2890012 133.429,19.051 C134.311004,18.8129988 135.199996,18.6240007 136.096,18.484 C136.992004,18.3439993 137.873996,18.2320004 138.742,18.148 C139.610004,18.0639996 140.379997,17.9380008 141.052,17.77 C141.724003,17.6019992 142.255998,17.3570016 142.648,17.035 C143.040002,16.7129984 143.222,16.2440031 143.194,15.628 C143.194,14.9839968 143.089001,14.4730019 142.879,14.095 C142.668999,13.7169981 142.389002,13.423001 142.039,13.213 C141.688998,13.0029989 141.283002,12.8630003 140.821,12.793 C140.358998,12.7229996 139.862003,12.688 139.33,12.688 C138.153994,12.688 137.230003,12.9399975 136.558,13.444 C135.885997,13.9480025 135.494001,14.7879941 135.382,15.964 L129.418,15.964 Z M143.194,20.374 C142.941999,20.5980011 142.627002,20.7729994 142.249,20.899 C141.870998,21.0250006 141.465002,21.1299996 141.031,21.214 C140.596998,21.2980004 140.142002,21.3679997 139.666,21.424 C139.189998,21.4800003 138.714002,21.5499996 138.238,21.634 C137.789998,21.7180004 137.349002,21.8299993 136.915,21.97 C136.480998,22.1100007 136.103002,22.2989988 135.781,22.537 C135.458998,22.7750012 135.200001,23.0759982 135.004,23.44 C134.807999,23.8040018 134.71,24.2659972 134.71,24.826 C134.71,25.3580027 134.807999,25.8059982 135.004,26.17 C135.200001,26.5340018 135.465998,26.8209989 135.802,27.031 C136.138002,27.241001 136.529998,27.3879996 136.978,27.472 C137.426002,27.5560004 137.887998,27.598 138.364,27.598 C139.540006,27.598 140.449997,27.402002 141.094,27.01 C141.738003,26.617998 142.213998,26.1490027 142.522,25.603 C142.830002,25.0569973 143.019,24.5040028 143.089,23.944 C143.159,23.3839972 143.194,22.9360017 143.194,22.6 L143.194,20.374 Z M158.398,23.944 C158.398,24.5880032 158.530999,25.1409977 158.797,25.603 C159.063001,26.0650023 159.405998,26.4429985 159.826,26.737 C160.246002,27.0310015 160.728997,27.2479993 161.275,27.388 C161.821003,27.5280007 162.387997,27.598 162.976,27.598 C163.396002,27.598 163.836998,27.5490005 164.299,27.451 C164.761002,27.3529995 165.180998,27.199001 165.559,26.989 C165.937002,26.7789989 166.251999,26.4990017 166.504,26.149 C166.756001,25.7989982 166.882,25.3580027 166.882,24.826 C166.882,23.9299955 166.287006,23.2580022 165.097,22.81 C163.906994,22.3619978 162.248011,21.9140022 160.12,21.466 C159.251996,21.269999 158.405004,21.0390013 157.579,20.773 C156.752996,20.5069987 156.018003,20.1570022 155.374,19.723 C154.729997,19.2889978 154.212002,18.7430033 153.82,18.085 C153.427998,17.4269967 153.232,16.6220048 153.232,15.67 C153.232,14.269993 153.504997,13.1220045 154.051,12.226 C154.597003,11.3299955 155.317996,10.6230026 156.214,10.105 C157.110004,9.58699741 158.117994,9.22300105 159.238,9.013 C160.358006,8.80299895 161.505994,8.698 162.682,8.698 C163.858006,8.698 164.998994,8.80999888 166.105,9.034 C167.211006,9.25800112 168.197996,9.63599734 169.066,10.168 C169.934004,10.7000027 170.654997,11.4069956 171.229,12.289 C171.803003,13.1710044 172.145999,14.2839933 172.258,15.628 L166.588,15.628 C166.504,14.4799943 166.070004,13.703002 165.286,13.297 C164.501996,12.890998 163.578005,12.688 162.514,12.688 C162.177998,12.688 161.814002,12.7089998 161.422,12.751 C161.029998,12.7930002 160.673002,12.8839993 160.351,13.024 C160.028998,13.1640007 159.756001,13.3669987 159.532,13.633 C159.307999,13.8990013 159.196,14.2559978 159.196,14.704 C159.196,15.2360027 159.391998,15.6699983 159.784,16.006 C160.176002,16.3420017 160.686997,16.6149989 161.317,16.825 C161.947003,17.035001 162.667996,17.2239992 163.48,17.392 C164.292004,17.5600008 165.117996,17.741999 165.958,17.938 C166.826004,18.134001 167.672996,18.3719986 168.499,18.652 C169.325004,18.9320014 170.059997,19.3029977 170.704,19.765 C171.348003,20.2270023 171.865998,20.8009966 172.258,21.487 C172.650002,22.1730034 172.846,23.019995 172.846,24.028 C172.846,25.4560071 172.559003,26.6529952 171.985,27.619 C171.410997,28.5850048 170.662005,29.3619971 169.738,29.95 C168.813995,30.5380029 167.757006,30.9509988 166.567,31.189 C165.376994,31.4270012 164.166006,31.546 162.934,31.546 C161.673994,31.546 160.442006,31.4200013 159.238,31.168 C158.033994,30.9159987 156.963005,30.4960029 156.025,29.908 C155.086995,29.3199971 154.317003,28.5430048 153.715,27.577 C153.112997,26.6109952 152.784,25.4000073 152.728,23.944 L158.398,23.944 Z M183.892,9.286 L188.26,9.286 L188.26,13.276 L183.892,13.276 L183.892,24.028 C183.892,25.036005 184.059998,25.7079983 184.396,26.044 C184.732002,26.3800017 185.403995,26.548 186.412,26.548 C186.748002,26.548 187.069998,26.5340001 187.378,26.506 C187.686002,26.4779999 187.979999,26.4360003 188.26,26.38 L188.26,31 C187.755997,31.0840004 187.196003,31.1399999 186.58,31.168 C185.963997,31.1960001 185.362003,31.21 184.774,31.21 C183.849995,31.21 182.975004,31.1470006 182.149,31.021 C181.322996,30.8949994 180.595003,30.6500018 179.965,30.286 C179.334997,29.9219982 178.838002,29.4040034 178.474,28.732 C178.109998,28.0599966 177.928,27.1780055 177.928,26.086 L177.928,13.276 L174.316,13.276 L174.316,9.286 L177.928,9.286 L177.928,2.776 L183.892,2.776 L183.892,9.286 Z" id="Combined-Shape" fill="#8800FF"></path>
            </g>
        </g>
    </g>
</svg>